<svg xmlns="http://www.w3.org/2000/svg" height="24" viewBox="0 96 960 960" width="24"><path d="M666.769 919.538q-22.872 0-39.417-16.544-16.544-16.544-16.544-39.416v-62.425H508.384q-22.872 0-39.416-16.544-16.544-16.544-16.544-39.416V405.999H349.999v62.425q0 22.872-16.544 39.416-16.544 16.544-39.416 16.544H152.422q-22.872 0-39.416-16.544-16.544-16.544-16.544-39.416V287.615q0-22.872 16.544-39.416 16.544-16.545 39.416-16.545h141.617q22.872 0 39.416 16.545 16.544 16.544 16.544 39.416v62.424h260.809v-62.424q0-22.872 16.544-39.416 16.545-16.545 39.417-16.545h141.616q22.872 0 39.416 16.545 16.545 16.544 16.545 39.416v180.809q0 22.872-16.545 39.416-16.544 16.544-39.416 16.544H666.769q-22.872 0-39.417-16.544-16.544-16.544-16.544-39.416v-62.425H508.384v339.194h102.424v-62.424q0-22.872 16.544-39.417 16.545-16.544 39.417-16.544h141.616q22.872 0 39.416 16.544 16.545 16.545 16.545 39.417v180.809q0 22.872-16.545 39.416-16.544 16.544-39.416 16.544H666.769Z"/></svg>