<svg xmlns="http://www.w3.org/2000/svg" height="24" viewBox="0 96 960 960" width="24"><path d="M400.5 808.565h159q15.5 0 26.5-11t11-26.5q0-15.5-11-26.5t-26.5-11h-159q-15.5 0-26.5 11t-11 26.5q0 15.5 11 26.5t26.5 11Zm79.5-117.5q15.5 0 26.5-11t11-26.5v-42h42q15.5 0 26.5-11t11-26.5q0-15.5-11-26.5t-26.5-11h-42v-42q0-15.5-11-26.5t-26.5-11q-15.5 0-26.5 11t-11 26.5v42h-42q-15.5 0-26.5 11t-11 26.5q0 15.5 11 26.5t26.5 11h42v42q0 15.5 11 26.5t26.5 11Zm0 288.066q-127.727 0-225.429-89.522T156.869 648q0-93.957 72.598-206.641Q302.065 328.674 446.5 199.761q6.696-6.196 15.38-9.305 8.685-3.108 18.12-3.108t18.12 3.108q8.684 3.109 15.38 9.305 144.435 128.913 217.033 241.598Q803.131 554.043 803.131 648q0 152.087-97.702 241.609Q607.727 979.131 480 979.131Z"/></svg>