<svg xmlns="http://www.w3.org/2000/svg" height="24" viewBox="0 96 960 960" width="24"><path d="M479.931 845.13q19.83 0 33.591-13.712 13.761-13.712 13.761-33.57V670.804h35.818q9.269 0 15.486-6.217 6.217-6.217 6.217-15.466V493.717q0-25.207-26.69-38.745-26.69-13.537-78.114-13.537-51.424 0-78.114 13.537-26.69 13.538-26.69 38.745v155.404q0 9.249 6.217 15.466 6.217 6.217 15.486 6.217h35.818v126.971q0 19.994 13.692 33.675 13.692 13.68 33.522 13.68Zm-.17 129.001q-81.895 0-154.399-31.376-72.503-31.375-126.622-85.495-54.12-54.119-85.495-126.622-31.376-72.504-31.376-154.399 0-82.674 31.376-154.899 31.375-72.224 85.495-126.425 54.119-54.201 126.622-85.623 72.504-31.423 154.399-31.423 82.674 0 154.876 31.378 72.201 31.378 126.477 85.667 54.276 54.288 85.646 126.507Q878.131 493.64 878.131 576q0 82.134-31.423 154.638-31.422 72.503-85.623 126.622-54.201 54.12-126.425 85.495-72.225 31.376-154.899 31.376ZM480 421.435q23.783 0 40.533-16.75t16.75-40.533q0-23.782-16.75-40.532-16.75-16.75-40.533-16.75t-40.533 16.75q-16.75 16.75-16.75 40.532 0 23.783 16.75 40.533T480 421.435Z"/></svg>